<svg width="936" height="936" viewBox="0 0 936 936" fill="none" xmlns="http://www.w3.org/2000/svg">
<g opacity="0.93">
<path fill-rule="evenodd" clip-rule="evenodd" d="M570.75 659.165C652.948 633.36 698.664 545.807 672.86 463.608C647.055 381.41 559.501 335.694 477.302 361.498C395.104 387.303 349.388 474.857 375.193 557.056C400.997 639.254 488.551 684.97 570.75 659.165ZM587.224 711.64C698.403 676.737 760.237 558.314 725.334 447.134C690.431 335.955 572.008 274.12 460.829 309.023C421.84 321.263 388.919 343.775 364.111 372.643C359.1 378.474 345.457 374.471 343.154 367.136V367.136C330.443 326.648 287.318 304.13 246.83 316.84C206.342 329.551 183.824 372.677 196.534 413.165C209.245 453.652 252.371 476.17 292.859 463.46V463.46C301.689 460.688 316.49 470.948 315.158 480.108C310.741 510.478 312.91 542.289 322.718 573.529C357.621 684.709 476.044 746.543 587.224 711.64ZM277.583 414.801C291.197 410.527 298.769 396.026 294.495 382.411C290.221 368.797 275.72 361.225 262.105 365.499C248.491 369.773 240.919 384.275 245.193 397.889C249.467 411.503 263.969 419.075 277.583 414.801Z" fill="#f4f4f4"/>
</g>
</svg>
