<svg width="555" height="555" viewBox="0 0 555 555" fill="none" xmlns="http://www.w3.org/2000/svg">
  <g filter="url('#fancy-goo')">
   <path fill-rule="evenodd" clip-rule="evenodd" d="M277.5 134.179C356.102 134.179 419.821 197.898 419.821 276.5C419.821 355.102 356.102 418.821 277.5 418.821C198.898 418.821 135.179 355.102 135.179 276.5C135.179 197.898 198.898 134.179 277.5 134.179ZM277.5 84C383.815 84 470 170.185 470 276.5C470 382.815 383.815 469 277.5 469C171.185 469 85 382.815 85 276.5C85 170.185 171.185 84 277.5 84Z" fill="black"/>
<path fill-rule="evenodd"  class="small" clip-rule="evenodd" d="M72.5 128.467C87.9824 128.467 100.533 141.018 100.533 156.5C100.533 171.982 87.9824 184.533 72.5 184.533C57.0176 184.533 44.4667 171.982 44.4667 156.5C44.4667 141.018 57.0176 128.467 72.5 128.467ZM72.5 84C112.541 84 145 116.459 145 156.5C145 196.541 112.541 229 72.5 229C32.4594 229 0 196.541 0 156.5C0 116.459 32.4594 84 72.5 84Z" fill="black"/>
  </g>
  <defs>
    <filter id="fancy-goo">
      <feGaussianBlur in="SourceGraphic" stdDeviation="10" result="blur" />
      <feColorMatrix in="blur" mode="matrix" values="1 0 0 0 0  0 1 0 0 0  0 0 1 0 0  0 0 0 19 -9" result="goo" />
      <feComposite in="SourceGraphic" in2="goo" operator="atop" />
    </filter>
  </defs>
  <style>
  path{fill:#000}
  @media (prefers-color-scheme:dark){path{fill:#fff}}
  @keyframes rotateAnimation {
      0% { transform: translate(355px, 655px) rotate(0deg) scale(-1);}
      100% { transform: translate(0, 0) rotate(360deg); }
    }
  .small {
    animation: rotateAnimation 2s ease-out ;
    transform: translate(0px, 0px);
  }

  </style>
</svg>